<svg xmlns="http://www.w3.org/2000/svg" version="1.1" xmlns:xlink="http://www.w3.org/1999/xlink" xmlns:svgjs="http://svgjs.dev/svgjs" width="1000" height="999" viewBox="0 0 1000 999"><g transform="matrix(1,0,0,1,-0.215743440233382,-0.21552769679306039)"><svg viewBox="0 0 343 343" data-background-color="#fdfbe2" preserveAspectRatio="xMidYMid meet" height="999" width="1000" xmlns="http://www.w3.org/2000/svg" xmlns:xlink="http://www.w3.org/1999/xlink"><g id="tight-bounds" transform="matrix(1,0,0,1,0.0740000000000407,0.07400000000001228)"><svg viewBox="0 0 342.85155851775386 342.85155851775386" height="342.85155851775386" width="342.85155851775386"><g><svg></svg></g><g><svg viewBox="0 0 342.85155851775386 342.85155851775386" height="342.85155851775386" width="342.85155851775386"><g><path d="M0 171.426c0-94.676 76.75-171.426 171.426-171.426 94.676 0 171.426 76.75 171.426 171.426 0 94.676-76.75 171.426-171.426 171.426-94.676 0-171.426-76.75-171.426-171.426zM171.426 336.88c91.378 0 165.454-74.076 165.454-165.454 0-91.378-74.076-165.454-165.454-165.454-91.378 0-165.454 74.076-165.454 165.454 0 91.378 74.076 165.454 165.454 165.454z" data-fill-palette-color="tertiary" fill="#454545" stroke="transparent"></path><ellipse rx="164.56874808852186" ry="164.56874808852186" cx="171.42577925887693" cy="171.42577925887693" fill="#454545" stroke="transparent" stroke-width="0" fill-opacity="1" data-fill-palette-color="tertiary"></ellipse></g><g transform="matrix(1,0,0,1,64.84655864529837,84.74061985733817)"><svg viewBox="0 0 213.1584412271571 173.3703188030775" height="173.3703188030775" width="213.1584412271571"><g><svg viewBox="0 0 213.1584412271571 173.3703188030775" height="173.3703188030775" width="213.1584412271571"><g><svg viewBox="0 0 213.1584412271571 173.3703188030775" height="173.3703188030775" width="213.1584412271571"><g transform="matrix(1,0,0,1,0,107.14981229254172)"><svg viewBox="0 0 213.1584412271571 66.2205065105358" height="66.2205065105358" width="213.1584412271571"><g id="textblocktransform"><svg viewBox="0 0 213.1584412271571 66.2205065105358" height="66.2205065105358" width="213.1584412271571" id="textblock"><g><svg viewBox="0 0 213.1584412271571 66.2205065105358" height="66.2205065105358" width="213.1584412271571"><g transform="matrix(1,0,0,1,0,0)"><svg width="213.1584412271571" viewBox="2.0999999046325684 -36.5 119.09000396728516 37" height="66.2205065105358" data-palette-color="#fdfbe2"><path d="M18.75 0.25L18.75 0.25Q15 0.25 11.95-1.25 8.9-2.75 6.7-5.33 4.5-7.9 3.3-11.13 2.1-14.35 2.1-17.75L2.1-17.75Q2.1-21.3 3.35-24.53 4.6-27.75 6.88-30.28 9.15-32.8 12.2-34.27 15.25-35.75 18.8-35.75L18.8-35.75Q22.55-35.75 25.6-34.2 28.65-32.65 30.83-30.05 33-27.45 34.2-24.25 35.4-21.05 35.4-17.7L35.4-17.7Q35.4-14.15 34.15-10.93 32.9-7.7 30.65-5.18 28.4-2.65 25.35-1.2 22.3 0.25 18.75 0.25ZM5.6-17.75L5.6-17.75Q5.6-14.85 6.55-12.18 7.5-9.5 9.25-7.43 11-5.35 13.43-4.13 15.85-2.9 18.75-2.9L18.75-2.9Q21.8-2.9 24.23-4.17 26.65-5.45 28.38-7.58 30.1-9.7 31-12.35 31.9-15 31.9-17.75L31.9-17.75Q31.9-20.65 30.95-23.3 30-25.95 28.23-28.05 26.45-30.15 24.05-31.35 21.65-32.55 18.75-32.55L18.75-32.55Q15.75-32.55 13.33-31.3 10.9-30.05 9.18-27.93 7.45-25.8 6.53-23.15 5.6-20.5 5.6-17.75ZM54.1-26.15L54.1-23.05Q50.7-22.95 48.12-21.15 45.55-19.35 44.5-16.2L44.5-16.2 44.5 0 41.1 0 41.1-26.05 44.3-26.05 44.3-19.8Q45.65-22.55 47.87-24.25 50.1-25.95 52.6-26.15L52.6-26.15Q53.1-26.2 53.47-26.2 53.85-26.2 54.1-26.15L54.1-26.15ZM62.05 0L58.65 0 58.65-26.05 62.05-26.05 62.05 0ZM62.05-31.5L58.65-31.5 58.65-36.5 62.05-36.5 62.05-31.5ZM80.64 0.5L80.64 0.5Q77.84 0.5 75.47-0.58 73.09-1.65 71.37-3.53 69.64-5.4 68.69-7.83 67.74-10.25 67.74-12.95L67.74-12.95Q67.74-15.75 68.69-18.18 69.64-20.6 71.39-22.48 73.14-24.35 75.52-25.43 77.89-26.5 80.69-26.5L80.69-26.5Q83.49-26.5 85.84-25.43 88.19-24.35 89.94-22.48 91.69-20.6 92.64-18.18 93.59-15.75 93.59-12.95L93.59-12.95Q93.59-10.25 92.64-7.83 91.69-5.4 89.97-3.53 88.24-1.65 85.87-0.58 83.49 0.5 80.64 0.5ZM71.19-12.9L71.19-12.9Q71.19-10 72.47-7.63 73.74-5.25 75.89-3.88 78.04-2.5 80.64-2.5L80.64-2.5Q83.24-2.5 85.39-3.9 87.54-5.3 88.84-7.73 90.14-10.15 90.14-13L90.14-13Q90.14-15.9 88.84-18.3 87.54-20.7 85.39-22.1 83.24-23.5 80.64-23.5L80.64-23.5Q78.04-23.5 75.92-22.05 73.79-20.6 72.49-18.23 71.19-15.85 71.19-12.9ZM121.19-15.25L121.19 0 117.79 0 117.79-14.55Q117.79-19.15 116.44-21.28 115.09-23.4 112.19-23.4L112.19-23.4Q110.19-23.4 108.24-22.43 106.29-21.45 104.82-19.78 103.34-18.1 102.69-15.95L102.69-15.95 102.69 0 99.29 0 99.29-26.05 102.39-26.05 102.39-20.15Q103.44-22.05 105.14-23.48 106.84-24.9 108.99-25.7 111.14-26.5 113.44-26.5L113.44-26.5Q115.59-26.5 117.09-25.7 118.59-24.9 119.49-23.43 120.39-21.95 120.79-19.88 121.19-17.8 121.19-15.25L121.19-15.25Z" opacity="1" transform="matrix(1,0,0,1,0,0)" fill="#fdfbe2" class="undefined-text-0" data-fill-palette-color="quaternary" id="text-0"></path></svg></g></svg></g></svg></g></svg></g><g transform="matrix(1,0,0,1,60.82132410594323,0)"><svg viewBox="0 0 91.51579301527065 91.51673999756048" height="91.51673999756048" width="91.51579301527065"><g><svg xmlns="http://www.w3.org/2000/svg" xmlns:xlink="http://www.w3.org/1999/xlink" version="1.1" x="0" y="0" viewBox="2.1510000228881836 2.1500015258789062 95.84900665283203 95.8499984741211" enable-background="new 0 0 100 100" xml:space="preserve" height="91.51673999756048" width="91.51579301527065" class="icon-icon-0" data-fill-palette-color="quaternary" id="icon-0"><g fill="#fdfbe2" data-fill-palette-color="quaternary"><path fill="#fdfbe2" d="M98 50.075C98 76.543 76.542 98 50.075 98 23.606 98 2.151 76.543 2.151 50.075c0-26.468 21.456-47.925 47.924-47.925C76.542 2.15 98 23.607 98 50.075zM49.797 6.185c-24.373 0-44.133 19.758-44.133 44.131 0 24.375 19.76 44.133 44.133 44.133S93.93 74.691 93.93 50.316C93.93 25.943 74.17 6.185 49.797 6.185z" data-fill-palette-color="quaternary"></path><path fill="#fdfbe2" d="M90.862 50.438c0 22.613-18.331 40.945-40.944 40.945-22.614 0-40.945-18.332-40.945-40.945 0-22.614 18.332-40.945 40.945-40.945C72.531 9.493 90.862 27.825 90.862 50.438zM21.963 34.746l-8.713 3.712 4.68 8.552-6.778 7.423 8.068 5.97-3.066 9.198 9.681 2.258 1.131 9.683 9.843-1.776 4.679 8.231 8.229-5.811 8.067 5.811 4.843-8.393 9.681 2.259 1.131-10.329 9.844-1.771-3.067-9.521 8.067-5.809-6.454-7.262 4.519-8.875-9.037-3.873 1.129-9.843-10.166-0.162-2.904-9.52-9.197 3.872-6.454-7.1-6.454 7.262-9.197-4.034-3.228 9.52-9.843-0.323L21.963 34.746z" data-fill-palette-color="quaternary"></path><path fill="#fdfbe2" d="M76.019 60.886l2.098 5.809-6.132 1.13-10.166-7.906-1.291 1.452 8.876 9.519-0.322 5.973-5.971-1.454L57.001 63.82c-0.675 0.37-1.38 0.693-2.111 0.963l4.671 12.562-3.229 4.841-4.355-3.389-1.265-13.12c-0.382 0.031-0.769 0.05-1.156 0.05s-0.77-0.019-1.15-0.047l-0.624 13.278-4.841 3.551-3.066-5.002 4.348-12.723c-0.708-0.261-1.391-0.568-2.047-0.924l-5.852 11.547-5.809 1.292-0.646-5.486 8.913-9.851c-0.566-0.549-1.092-1.14-1.57-1.769l-10.085 8.068-5.809-0.967 1.613-5.648 12.263-5.002h0.001c-0.312-0.77-0.563-1.569-0.748-2.394l-12.646 3.2-4.518-3.388 3.549-4.035h13.253c0.032-0.624 0.105-1.24 0.209-1.843l-0.068-0.092-13.071-2.905-2.42-4.357 5.325-2.582 11.664 5.611c0.264-0.522 0.555-1.027 0.875-1.514L26.158 34.1l-0.484-5.647h5.809l7.906 9.521c0 0 0.21 0.074 0.498 0.165 0.478-0.383 0.978-0.738 1.5-1.063-0.114-0.391-0.222-0.717-0.222-0.717L34.71 26.354l1.453-5.809 5.325 2.098 4.246 12.578c0.531-0.134 1.073-0.24 1.625-0.317l-1.354-13.067 3.712-4.034 3.712 3.872L52.007 34.94c0.646 0.103 1.274 0.246 1.891 0.426l3.565-12.401 5.486-2.743 1.937 5.971-6.779 10.488 1.776 1.614 8.23-9.682h5.81L73.438 34.1l-10.489 7.261 0.161 1.292c0 0-0.006 0.022-0.016 0.058 0.146 0.264 0.288 0.532 0.423 0.805 1.75-0.791 11.856-5.704 11.856-5.704l5.325 2.582c0 0-1.936 4.68-2.42 4.68-0.426 0-10.897 1.985-13.471 2.474 0.126 0.717 0.203 1.451 0.227 2.198l13.403-0.154 3.712 4.197-4.681 3.387-12.85-3.331c-0.186 0.776-0.428 1.532-0.727 2.256L76.019 60.886zM49.879 38.618c-1.157 0-2.098 0.94-2.098 2.098 0 1.159 0.94 2.099 2.098 2.099s2.098-0.939 2.098-2.099C51.977 39.558 51.036 38.618 49.879 38.618zM56.494 41.361c-1.158 0-2.097 0.94-2.097 2.098 0 1.159 0.938 2.099 2.097 2.099 1.159 0 2.099-0.94 2.099-2.099C58.593 42.301 57.653 41.361 56.494 41.361zM59.399 48.138c-1.158 0-2.097 0.941-2.097 2.098 0 1.158 0.938 2.097 2.097 2.097 1.159 0 2.099-0.938 2.099-2.097C61.498 49.079 60.559 48.138 59.399 48.138zM56.655 54.916c-1.157 0-2.098 0.939-2.098 2.097 0 1.16 0.94 2.097 2.098 2.097 1.159 0 2.099-0.938 2.099-2.097C58.754 55.855 57.814 54.916 56.655 54.916zM49.879 57.98c-1.157 0-2.098 0.941-2.098 2.1 0 1.157 0.94 2.097 2.098 2.097s2.098-0.939 2.098-2.097C51.977 58.922 51.036 57.98 49.879 57.98zM43.263 54.916c-1.159 0-2.097 0.939-2.097 2.097 0 1.16 0.938 2.097 2.097 2.097 1.159 0 2.098-0.937 2.098-2.097C45.361 55.855 44.422 54.916 43.263 54.916zM40.197 48.138c-1.159 0-2.097 0.941-2.097 2.098 0 1.158 0.938 2.097 2.097 2.097 1.159 0 2.098-0.938 2.098-2.097C42.295 49.079 41.356 48.138 40.197 48.138zM42.779 41.361c-1.159 0-2.097 0.94-2.097 2.098 0 1.159 0.938 2.099 2.097 2.099s2.097-0.94 2.097-2.099C44.876 42.301 43.938 41.361 42.779 41.361zM49.717 47.494c-1.516 0-2.742 1.227-2.742 2.743 0 1.515 1.227 2.741 2.742 2.741s2.742-1.227 2.742-2.741C52.459 48.721 51.232 47.494 49.717 47.494z" data-fill-palette-color="quaternary"></path></g></svg></g></svg></g><g></g></svg></g></svg></g></svg></g></svg></g><defs></defs></svg><rect width="342.85155851775386" height="342.85155851775386" fill="none" stroke="none" visibility="hidden"></rect></g></svg></g></svg>