<svg xmlns="http://www.w3.org/2000/svg" version="1.1" xmlns:xlink="http://www.w3.org/1999/xlink" xmlns:svgjs="http://svgjs.dev/svgjs" width="1000" height="623" viewBox="0 0 1000 623"><g transform="matrix(1,0,0,1,-0.6060606060606233,0.2522267206477409)"><svg viewBox="0 0 396 247" data-background-color="#051726" preserveAspectRatio="xMidYMid meet" height="623" width="1000" xmlns="http://www.w3.org/2000/svg" xmlns:xlink="http://www.w3.org/1999/xlink"><g id="tight-bounds" transform="matrix(1,0,0,1,0.2400000000000091,-0.09999999999999432)"><svg viewBox="0 0 395.52 247.2" height="247.2" width="395.52"><g><svg></svg></g><g><svg viewBox="0 0 395.52 247.2" height="247.2" width="395.52"><g transform="matrix(1,0,0,1,75.54432000000001,99.16535428721458)"><svg viewBox="0 0 244.43135999999996 48.86929142557083" height="48.86929142557083" width="244.43135999999996"><g><svg viewBox="0 0 244.43135999999996 48.86929142557083" height="48.86929142557083" width="244.43135999999996"><g><svg viewBox="0 0 383.0624899832055 76.58588675853245" height="48.86929142557083" width="244.43135999999996"><g transform="matrix(1,0,0,1,0,10.584590716989652)"><svg viewBox="0 0 244.43135999999996 55.41670532455315" height="55.41670532455315" width="244.43135999999996"><g id="textblocktransform"><svg viewBox="0 0 244.43135999999996 55.41670532455315" height="55.41670532455315" width="244.43135999999996" id="textblock"><g><svg viewBox="0 0 244.43135999999996 55.41670532455315" height="55.41670532455315" width="244.43135999999996"><g transform="matrix(1,0,0,1,0,0)"><svg width="244.43135999999996" viewBox="2.5 -35.45 159.44 36.150000000000006" height="55.41670532455315" data-palette-color="#ffffff"><path d="M10.55-17.35L10.55-17.35Q10.55-14.8 11.18-12.75 11.8-10.7 12.98-9.22 14.15-7.75 15.85-6.95 17.55-6.15 19.75-6.15L19.75-6.15Q21.9-6.15 23.63-6.95 25.35-7.75 26.53-9.22 27.7-10.7 28.33-12.75 28.95-14.8 28.95-17.35L28.95-17.35Q28.95-19.9 28.33-21.98 27.7-24.05 26.53-25.53 25.35-27 23.63-27.8 21.9-28.6 19.75-28.6L19.75-28.6Q17.55-28.6 15.85-27.78 14.15-26.95 12.98-25.48 11.8-24 11.18-21.93 10.55-19.85 10.55-17.35ZM37-17.35L37-17.35Q37-12.9 35.68-9.53 34.35-6.15 32.05-3.88 29.75-1.6 26.58-0.45 23.4 0.7 19.75 0.7L19.75 0.7Q16.2 0.7 13.05-0.45 9.9-1.6 7.55-3.88 5.2-6.15 3.85-9.53 2.5-12.9 2.5-17.35L2.5-17.35Q2.5-21.8 3.9-25.18 5.3-28.55 7.68-30.85 10.05-33.15 13.18-34.3 16.3-35.45 19.75-35.45L19.75-35.45Q23.3-35.45 26.45-34.3 29.6-33.15 31.95-30.85 34.3-28.55 35.65-25.18 37-21.8 37-17.35ZM53.65-35.05L53.65-35.05Q61.45-35.05 65.6-32.27 69.75-29.5 69.75-23.65L69.75-23.65Q69.75-20 68.07-17.73 66.4-15.45 63.25-14.15L63.25-14.15Q64.3-12.85 65.45-11.18 66.6-9.5 67.72-7.68 68.85-5.85 69.9-3.88 70.95-1.9 71.85 0L71.85 0 63.1 0Q62.15-1.7 61.17-3.45 60.2-5.2 59.17-6.85 58.15-8.5 57.15-9.98 56.15-11.45 55.15-12.65L55.15-12.65 51.3-12.65 51.3 0 43.5 0 43.5-34.15Q46.05-34.65 48.77-34.85 51.5-35.05 53.65-35.05ZM54.1-28.4L54.1-28.4Q53.25-28.4 52.57-28.35 51.9-28.3 51.3-28.25L51.3-28.25 51.3-18.85 53.5-18.85Q57.9-18.85 59.8-19.95 61.7-21.05 61.7-23.7L61.7-23.7Q61.7-26.25 59.77-27.33 57.85-28.4 54.1-28.4ZM76.84 0L76.84-34.65 84.64-34.65 84.64 0 76.84 0ZM99.19-17.35L99.19-17.35Q99.19-14.8 99.82-12.75 100.44-10.7 101.62-9.22 102.79-7.75 104.49-6.95 106.19-6.15 108.39-6.15L108.39-6.15Q110.54-6.15 112.27-6.95 113.99-7.75 115.17-9.22 116.34-10.7 116.97-12.75 117.59-14.8 117.59-17.35L117.59-17.35Q117.59-19.9 116.97-21.98 116.34-24.05 115.17-25.53 113.99-27 112.27-27.8 110.54-28.6 108.39-28.6L108.39-28.6Q106.19-28.6 104.49-27.78 102.79-26.95 101.62-25.48 100.44-24 99.82-21.93 99.19-19.85 99.19-17.35ZM125.64-17.35L125.64-17.35Q125.64-12.9 124.32-9.53 122.99-6.15 120.69-3.88 118.39-1.6 115.22-0.45 112.04 0.7 108.39 0.7L108.39 0.7Q104.84 0.7 101.69-0.45 98.54-1.6 96.19-3.88 93.84-6.15 92.49-9.53 91.14-12.9 91.14-17.35L91.14-17.35Q91.14-21.8 92.54-25.18 93.94-28.55 96.32-30.85 98.69-33.15 101.82-34.3 104.94-35.45 108.39-35.45L108.39-35.45Q111.94-35.45 115.09-34.3 118.24-33.15 120.59-30.85 122.94-28.55 124.29-25.18 125.64-21.8 125.64-17.35ZM161.94 0L155.39 0Q152.04-5.95 148.14-11.75 144.24-17.55 139.84-22.7L139.84-22.7 139.84 0 132.14 0 132.14-34.65 138.49-34.65Q140.14-33 142.14-30.6 144.14-28.2 146.21-25.48 148.29-22.75 150.34-19.83 152.39-16.9 154.19-14.2L154.19-14.2 154.19-34.65 161.94-34.65 161.94 0Z" opacity="1" transform="matrix(1,0,0,1,0,0)" fill="#ffffff" class="undefined-text-0" data-fill-palette-color="primary" id="text-0"></path></svg></g></svg></g></svg></g></svg></g><g transform="matrix(1,0,0,1,257.51391412619915,0)"><svg viewBox="0 0 125.54857585700636 76.58588675853245" height="76.58588675853245" width="125.54857585700636"><g><svg xmlns="http://www.w3.org/2000/svg" xmlns:xlink="http://www.w3.org/1999/xlink" version="1.1" x="0" y="0" viewBox="0 19.5 100 61.001000000000005" enable-background="new 0 0 100 100" xml:space="preserve" height="76.58588675853245" width="125.54857585700636" class="icon-icon-0" data-fill-palette-color="accent" id="icon-0"><path d="M27.695 19.5H4.107C1.842 19.5 0 21.341 0 23.607c0 2.261 1.841 4.102 4.107 4.102h23.588c2.269 0 4.106-1.841 4.106-4.102C31.801 21.341 29.963 19.5 27.695 19.5z" fill="#ffffff" data-fill-palette-color="accent"></path><path d="M27.695 58.803h-8.173c-2.265 0-4.107 1.842-4.107 4.106 0 2.261 1.842 4.103 4.107 4.103h8.173c2.269 0 4.105-1.842 4.105-4.103C31.8 60.645 29.963 58.803 27.695 58.803z" fill="#ffffff" data-fill-palette-color="accent"></path><path d="M27.695 39.151H11.114c-2.265 0-4.107 1.841-4.107 4.106 0 2.262 1.841 4.104 4.107 4.104h16.581c2.269 0 4.105-1.842 4.105-4.104C31.8 40.992 29.963 39.151 27.695 39.151z" fill="#ffffff" data-fill-palette-color="accent"></path><path d="M92.993 19.5H45.871c-3.87 0-7.007 3.137-7.007 7.007v33.498c0 3.87 3.137 7.007 7.007 7.007h12.088v10.686c0 1.133 0.682 2.155 1.73 2.589 0.348 0.145 0.711 0.214 1.072 0.214 0.729 0 1.445-0.284 1.981-0.821L75.41 67.012h17.583c3.87 0 7.007-3.137 7.007-7.007V26.507C100 22.637 96.863 19.5 92.993 19.5z" fill="#ffffff" data-fill-palette-color="accent"></path></svg></g></svg></g></svg></g></svg></g></svg></g><g><path d="M245.816 0c68.262 0 123.6 55.338 123.6 123.6 0 68.262-55.338 123.6-123.6 123.6-58.415 0-107.365-40.523-120.273-94.991h1.64c12.874 53.58 61.104 93.397 118.633 93.397 67.382 0 122.006-54.624 122.005-122.006 0-67.382-54.624-122.006-122.005-122.006-57.529 0-105.759 39.817-118.633 93.397h-1.64c12.908-54.468 61.858-94.991 120.273-94.991z" fill="#ffffff" stroke="transparent" data-fill-palette-color="tertiary"></path></g></svg></g><defs></defs></svg><rect width="395.52" height="247.2" fill="none" stroke="none" visibility="hidden"></rect></g></svg></g></svg>